<?xml version="1.0" encoding="utf-8"?>
<!-- Generator: Adobe Illustrator 28.0.0, SVG Export Plug-In . SVG Version: 6.00 Build 0)  -->
<svg version="1.0" id="katman_1" xmlns="http://www.w3.org/2000/svg" xmlns:xlink="http://www.w3.org/1999/xlink" x="0px" y="0px"
	 viewBox="0 0 419.93 587.73" style="enable-background:new 0 0 419.93 587.73;" xml:space="preserve">
<style type="text/css">
	.st0{fill:#2CA1AD;}
	.st1{fill:#2484A9;}
	.st2{fill:url(#SVGID_1_);}
</style>
<path class="st0" d="M413.17,346.33c-7.25-26.75-20.08-50.48-38.51-71.2c-4.86-5.32-12.69-14.22-19.23-17.1
	c-3.81-1.68-9.28-0.72-11.56,2.92c-2.35,3.73-0.67,8.08,1.88,11.3c2.63,3.34,5.22,6.7,7.76,10.09
	c13.21,17.36,23.98,36.03,32.32,56.02c7.41,18.31,12.44,37.96,15.09,58.96c3.37,26.8,1.48,52.69-5.69,77.68
	c-1.65,5.74-3.51,11.41-5.59,17.01c-0.34,0.91-0.61,2.02-0.8,3.32c-0.17,1.1,1.01,1.89,1.97,1.33c0.81-0.48,1.54-1.22,2.19-2.23
	c4.41-6.75,8.15-13.82,11.22-21.21C420.47,434.04,425.24,387.54,413.17,346.33z"/>
<path class="st1" d="M79.77,297.43c5.94-7.53,15.85-15.33,8.39-25.85c-3.39-4.77-9.39-6.72-15.05-5.16
	c-5.88,1.62-11.1,6.65-15.06,11.22c-16.2,18.63-26.99,40.33-32.21,64.6c-6.95,32.52-3.98,68.49,9.11,99.29
	c1.93,4.53,6.58,15.09,10.55,17.8c0.58,0.39,1.14,0.37,1.67-0.08c0.95-0.8,1.56-1.95,1.83-3.45c2.06-11.43,6.14-22.06,12.23-31.91
	c0.48-0.78,0.7-1.8,0.42-2.58c-7.24-20.25-9.38-41.82-6.72-63.46C57.96,336.04,66.05,314.81,79.77,297.43z"/>
<linearGradient id="SVGID_1_" gradientUnits="userSpaceOnUse" x1="194.3795" y1="587.7294" x2="194.3795" y2="-2.728484e-12">
	<stop  offset="0" style="stop-color:#FB9659"/>
	<stop  offset="0.0665" style="stop-color:#EA8C60"/>
	<stop  offset="0.3016" style="stop-color:#B46A78"/>
	<stop  offset="0.5206" style="stop-color:#89508B"/>
	<stop  offset="0.7168" style="stop-color:#6A3D99"/>
	<stop  offset="0.8833" style="stop-color:#5831A1"/>
	<stop  offset="1" style="stop-color:#512DA4"/>
</linearGradient>
<path class="st2" d="M387.62,407.84c-2.13-22.65-7.2-44.67-15.23-66.06c-5.63-15.69-12.73-30.78-21.28-45.25l-6.38-10.22
	c-5.81-8.58-12.09-16.75-18.85-24.52c-8.2-9.15-16.86-17.75-25.37-26.59c-4.84-5.02-7.95-10.3-9.34-15.85
	c-4-16.04,8.37-31.16,16.45-43.77c9.32-14.55,16.29-31.18,17.94-48.5c1.95-17-0.17-34.17-7.04-49.81
	c-3.93-9.37-9.18-17.94-15.74-25.73c-7.77-9.34-16.9-17.19-27.37-23.55c-15.11-8.93-30.86-13.99-47.25-15.2
	c-19.95-1.47-40,1.29-60.15,8.28c-6.62,2.29-16.32,5.69-29.09,10.2c-9.45,3.32-30.1,5.98-34-7.62c-2.03-7.05,2.43-13.8,9.11-16.41
	c0.66-0.26,0.88-1.09,0.43-1.64c-8.63-10.62-23.32-4.69-28.86,5.68C74.84,31.44,88.05,52,105.23,62.21
	c1.39,0.83,1.28,1.18-0.33,1.07c-7.38-0.53-14.62,8.86-18.02,14.54c-6.67,9.78-11.02,20.53-13.03,32.26
	c-2.23,12.8-1.85,25.46,1.12,37.98c3.72,12.99,10.86,24.16,19.45,34.41c6.1,8.51,12.83,16.8,3.83,25.96
	c-2.41,2.46-3.77,4.18-4.08,5.15c-2.36,7.57,3.21,12.37,9.98,14.31c6.16,2.26,0.18,12.94,8.22,17.96c1.85,0.71,3.72,1.09,5.63,1.14
	c0.91,0.02,1.72,0.57,2.09,1.41c1.96,4.45,4.91,8.33,8.84,11.64c13.56,11.42,31.44,16.49,48.9,10.62c3.7-1.25,7.98-3.43,11.94-5.19
	c10.48-4.64,16.41,6.96,15.61,15.87c-1.25,13.87-11.14,23.33-20.71,32.25c-15.58,14.52-30.07,28.56-42.17,46.66
	c-0.7,1.05-0.42,1.58,0.84,1.59l17.32,0.17c15.55,1.15,30.3,5.13,44.23,11.94c17.35,8.36,33.01,19.14,46.96,32.34
	c15.06,14.04,27.68,29.87,37.85,47.5c16.69,28.86,27.23,71.47,1.39,98.93c-0.71,0.76-2.14,1.82-2.94,2.05
	c-0.95,0.26-1.58-0.04-1.91-0.91c-0.11-0.31-0.12-0.62-0.01-0.93c11.73-33.49-2.1-69.16-21.23-96.84
	c-7.41-10.67-15.85-20.51-25.3-29.54c-16.44-16.11-38.08-31.75-60.32-39.02c-18.98-6.63-42.61-8.19-61.29-0.2
	c-21.84,9.35-37.27,32.79-45.13,54.42c-2.29,5.87-3.8,10.56-4.53,14.07c-2.47,11.94-3.61,27.28-19.29,22.98
	c-6.99-1.92-14.54-4.53-20.73-4.93c-27.44-1.78-33.68,24.21-24.36,44.42c10.47,25.67,56.94,54.26,84.38,50.76
	c29.94-3.81,39.84-45.78,49.09-66.8c2.93-6.67,13.76-17.5,18.83-4.91c0.63,6.03-0.14,12.94-2.31,20.72
	c-4.24,15.26-11.53,29.04-21.88,41.34c-0.49,0.59-0.44,1.12,0.16,1.59c2.2,1.73,4.69,3.37,7.48,4.91
	c33.03,18.25,70.42,24.56,107.66,20.77c77.82-7.93,138.5-65.04,141.15-145.1C388.99,430.26,388.66,419.01,387.62,407.84z"/>
</svg>
